<?xml version="1.0" encoding="utf-8" ?>
<svg baseProfile="full" height="200mm" version="1.1" viewBox="0,0,200,200" width="200mm" xmlns="http://www.w3.org/2000/svg" xmlns:ev="http://www.w3.org/2001/xml-events" xmlns:xlink="http://www.w3.org/1999/xlink"><defs /><rect fill="#1a1a1a" height="200" width="200" x="0" y="0" /><text alignment-baseline="middle" fill="#e1ed5e" style="dominant-baseline: central; font-size:9.0px; font-family:Arial;" text-anchor="middle" x="100.0" y="100.0">2022</text><line stroke="#e1ed5e" stroke-width="0.3" x1="100.0" x2="100.0" y1="15.0" y2="10.0" /><path d="M 100.0 14.0 a86.0,86.0 0 0,1 42.46469731375804,11.215312516191453" fill="none" id="id1" stroke="none" /><text fill="#e1ed5e" style="font-size:6.75px; font-family:Arial;" text-anchor="middle"><textPath startOffset="22.20632615414155" xlink:href="#id1">January</textPath></text><path d="M 108.43124777332544 80.76684994638697 l 10.762496691480903 -24.551136366037888 a47.806522189533005,47.806522189533005 0 0,0 0.7508307558106019,0.33687587394100993 l -11.183509565758285 24.362240161580345" fill="#ffc612" stroke="none" /><path d="M 109.73455568895987 81.39251694778311 l 12.162123875563202 -23.247749679028804 a47.23690382463846,47.23690382463846 0 0,0 0.7172247986262732,0.38311664835840875 l -12.560493720717785 23.03495430416864" fill="#ffbc11" stroke="none" /><line stroke="#e1ed5e" stroke-width="0.3" x1="143.23703022742887" x2="145.7803849466894" y1="26.81831364943548" y2="22.513508569990506" /><path d="M 143.74570117128098 25.957352633546492 a86.0,86.0 0 0,1 28.547481713284135,27.462654790039103" fill="none" id="id2" stroke="none" /><text fill="#e1ed5e" style="font-size:6.75px; font-family:Arial;" text-anchor="middle"><textPath startOffset="19.985693538727396" xlink:href="#id2">February</textPath></text><path d="M 111.60114157652 82.49532879139004 l 17.71566858918748 -26.73072747617038 a53.068313098247216,53.068313098247216 0 0,0 0.7570960704761283,0.5111946463895175 l -18.17316935407015 26.42182091748219" fill="#e3ff1b" stroke="none" /><path d="M 112.19680574252982 82.90503203632743 l 9.6724364008488 -13.556827409868575 a37.65363609994613,37.65363609994613 0 0,0 0.5243801063685384,0.3809844481167156 l -9.904361823571127 13.388323726935186" fill="#ff1001" stroke="none" /><path d="M 113.34407831869373 83.78471172551755 l 13.807994189467523 -16.779023693298626 a42.73007914473957,42.73007914473957 0 0,0 0.5639199704811894,0.4722667578078358 l -14.09477169690783 16.53885577809697" fill="#ff6e0a" stroke="none" /><path d="M 113.89432698308785 84.25364557470407 l 17.51572990537776 -19.850467852350654 a47.473418141134545,47.473418141134545 0 0,0 0.6080870410107806,0.545946549437791 l -17.85482793398453 19.546022294143565" fill="#ffc011" stroke="none" /><path d="M 114.42810811169701 84.74124197986012 l 18.038692394967242 -19.07720957756037 a47.255177557701074,47.255177557701074 0 0,0 0.5862269323738825,0.5639498444766852 l -18.364402570953544 18.763876646321386" fill="#ffbd11" stroke="none" /><path d="M 114.94478906791727 85.2469230424477 l 11.308077168018752 -11.163016884584927 a36.88979405792898,36.88979405792898 0 0,0 0.4422133080482583,0.45573968559092465 l -11.49855473977012 10.966713003443889" fill="#ff0200" stroke="none" /><path d="M 117.65298651832404 88.62581576622439 l 14.510662750644247 -9.349520054790267 a38.26189035760162,38.26189035760162 0 0,0 0.3519591110738855,0.5567147905555385 l -14.669449457964088 9.098357616520524" fill="#ff1c02" stroke="none" /><line stroke="#e1ed5e" stroke-width="0.3" x1="172.23445277983987" x2="176.4835382374775" y1="55.19839476539836" y2="52.563006222186495" /><path d="M 173.08426987136738 54.67131705675599 a86.0,86.0 0 0,1 12.851231095245387,41.99856678651699" fill="none" id="id3" stroke="none" /><text fill="#e1ed5e" style="font-size:6.75px; font-family:Arial;" text-anchor="middle"><textPath startOffset="22.20632615414155" xlink:href="#id3">March</textPath></text><path d="M 118.3937258080291 89.86733742301442 l 18.584118743298056 -10.237545480550459 a42.21737040566859,42.21737040566859 0 0,0 0.34516097956892244,0.6395308742733643 l -18.757587822085444 9.916133622944637" fill="#ff6509" stroke="none" /><path d="M 118.73160827565052 90.50648371742162 l 17.222399344677374 -8.728622027415526 a40.308026353955164,40.308026353955164 0 0,0 0.30833718244633534,0.6215889448219054 l -17.370096540077117 8.430873494094671" fill="#ff4206" stroke="none" /><path d="M 119.04729006885535 91.15688171328212 l 24.243325764347098 -11.25549076128708 a47.72872829735217,47.72872829735217 0 0,0 0.3395505439004929,0.7481546143545419 l -24.433478625210938 10.836514138090475" fill="#ffc512" stroke="none" /><path d="M 119.34039704204932 91.81776055985345 l 28.22946246744206 -11.942889314684212 a51.65183773256537,51.65183773256537 0 0,0 0.33937302093177274,0.8218186890128424 l -28.430857175260027 11.455196055218067" fill="#faff18" stroke="none" /><path d="M 120.08093135843002 93.85539295169968 l 20.411106370364926 -6.245638004947463 a42.34528653710687,42.34528653710687 0 0,0 0.20727836862522914,0.6988396154075733 l -20.51559063610186 5.89336900279336" fill="#ff6709" stroke="none" /><path d="M 120.6074358757038 95.95851677861258 l 21.21371273609204 -4.160384853475652 a42.617826213069236,42.617826213069236 0 0,0 0.13498542186179635,0.7210975211616261 l -21.2821838818637 3.7946092548514625" fill="#ff6c09" stroke="none" /><path d="M 120.73433829027371 96.67025291283417 l 27.31179655136929 -4.386027359013787 a48.66173289686322,48.66173289686322 0 0,0 0.12569582022313214,0.8281784061846824 l -27.38324826503172 3.915249840437023" fill="#ffd413" stroke="none" /><path d="M 120.78858239683441 97.02765380044208 l 27.334664332359385 -3.908303322156864 a48.612654870923635,48.612654870923635 0 0,0 0.111309092505456,0.8293820277996566 l -27.397889423922678 3.437202952292543" fill="#ffd313" stroke="none" /><path d="M 120.91429891909075 98.10471618934814 l 21.409489338946077 -1.9401586778215687 a42.497219574856004,42.497219574856004 0 0,0 0.059750111627804546,0.7291027033422 l -21.439713934393378 1.5713420572716" fill="#ff6a09" stroke="none" /><path d="M 120.94382443527127 98.46500227214037 l 16.84601022989009 -1.2346640655960266 a37.89119462976008,37.89119462976008 0 0,0 0.04207620309060333,0.6509002384433341 l -16.86476702398511 0.9445047628996573" fill="#ff1502" stroke="none" /><line stroke="#e1ed5e" stroke-width="0.3" x1="184.98032266829074" x2="189.97916517819016" y1="98.17113171792111" y2="98.06355123074" /><path d="M 185.9800911702706 98.14961562048488 a86.0,86.0 0 0,1 -9.607161424134198,41.387399972396054" fill="none" id="id4" stroke="none" /><text fill="#e1ed5e" style="font-size:6.75px; font-family:Arial;" text-anchor="middle"><textPath startOffset="21.466115282336823" xlink:href="#id4">April</textPath></text><path d="M 120.99824983174949 100.27111621757518 l 31.80356478267138 0.4106276598465845 a52.80621555546347,52.80621555546347 0 0,0 -0.01955825878249424,0.9087954329203312 l -31.791784461203875 -0.9580129085570305" fill="#e7ff1a" stroke="none" /><path d="M 120.92983693683757 101.71520430193887 l 18.039398096117715 1.478332263754564 a39.099871545187085,39.099871545187085 0 0,0 -0.060745194984582036,0.6703181648394053 l -18.01127830485606 -1.7886318171425397" fill="#ff2c04" stroke="none" /><path d="M 120.70491114924044 103.5080841355445 l 27.406359828920422 4.643527105035988 a48.79695852152654,48.79695852152654 0 0,0 -0.14744479148656672,0.8269486932885806 l -27.32236859509467 -5.114594549057787" fill="#ffd614" stroke="none" /><path d="M 120.49622156327973 104.57218783832717 l 41.61447240899207 9.283134652860808 a63.63731819500269,63.63731819500269 0 0,0 -0.24769897023604062,1.0670806808925188 l -41.44851287282548 -9.998083991101891" fill="#4cff2c" stroke="none" /><path d="M 120.32669344350535 105.2749913415812 l 30.61259160503053 7.94429040358716 a52.62661086479095,52.62661086479095 0 0,0 -0.23509540956375075,0.8748774766257487 l -30.471308119125002 -8.470058813388457" fill="#eaff1a" stroke="none" /><path d="M 120.13307415673323 105.97154293290107 l 30.379059469928222 9.010539397688623 a52.68717523722704,52.68717523722704 0 0,0 -0.2653758367798318,0.8672635891396456 l -30.219456860642257 -9.532129959380326" fill="#e9ff1a" stroke="none" /><path d="M 119.79798401119884 107.00284435728193 l 32.13175150044458 11.365483200571994 a55.08260058840591,55.08260058840591 0 0,0 -0.32387451492415964,0.8911635665020137 l -31.931352724515197 -11.91689456408014" fill="#c4ff1e" stroke="none" /><path d="M 119.67450827220406 107.3425965602758 l 30.106326651579554 11.23578833361425 a53.13462064393155,53.13462064393155 0 0,0 -0.32717192385187127,0.8541426530786863 l -29.90846044813418 -11.75235455352608" fill="#e2ff1b" stroke="none" /><path d="M 119.26925614724726 108.34839909993367 l 48.78915292841326 21.137884995746365 a74.17134214560974,74.17134214560974 0 0,0 -0.5176414975660089,1.1671449236469886 l -48.418070346115975 -21.97457825588604" fill="#3dffad" stroke="none" /><line stroke="#e1ed5e" stroke-width="0.3" x1="174.80103733775053" x2="179.2010983576182" y1="140.37084112569926" y2="142.7455964860345" /><path d="M 175.68104954172406 140.8457921977663 a86.0,86.0 0 0,1 -30.038265399797805,32.042727171017184" fill="none" id="id5" stroke="none" /><text fill="#e1ed5e" style="font-size:6.75px; font-family:Arial;" text-anchor="middle"><textPath startOffset="22.206326154141568" xlink:href="#id5">May</textPath></text><path d="M 116.93607887273984 112.41649034213515 l 21.295541929859134 15.612580260725597 a47.40554427547342,47.40554427547342 0 0,0 -0.4881388021789572,0.6539416960216938 l -21.023641860985084 -15.976834836256605" fill="#ffbf11" stroke="none" /><path d="M 116.498646956653 112.99209946851258 l 21.024443287529515 16.556003603164427 a47.76057680354701,47.76057680354701 0 0,0 -0.5141814726290675,0.6415204461204225 l -20.73634390284559 -16.915451882863103" fill="#ffc512" stroke="none" /><path d="M 116.27256486870786 113.27417163493432 l 20.430082809597053 16.66562265497651 a47.36534206273568,47.36534206273568 0 0,0 -0.5208022356522035,0.6273398427478833 l -20.140184574051304 -17.014823754838165" fill="#ffbe11" stroke="none" /><path d="M 116.0416608686014 113.55231037782055 l 20.06161480176155 16.948446467030667 a47.262487050926126,47.262487050926126 0 0,0 -0.5303694804697532,0.616939526249552 l -19.766902811721017 -17.291263092441746" fill="#ffbd11" stroke="none" /><path d="M 115.80600337817218 113.82643327865902 l 27.8967150494277 24.402884150799125 a58.063829610906225,58.063829610906225 0 0,0 -0.6645298858337181,0.746606371367134 l -27.472526313945647 -24.879464691907124" fill="#98ff23" stroke="none" /><path d="M 115.56566222782051 114.09645910891815 l 19.6068133537554 17.756176297042956 a47.45201176811834,47.45201176811834 0 0,0 -0.553501939544279,0.6007170374145978 l -19.2982650062154 -18.09104458925889" fill="#ffc011" stroke="none" /><path d="M 115.32070863581623 114.36230785411682 l 19.676886422135546 18.44598100015664 a47.97098578709651,47.97098578709651 0 0,0 -0.5699260322749232,0.5975651663060069 l -19.35645383848166 -18.78195328304515" fill="#ffc912" stroke="none" /><path d="M 115.07121518719521 114.62390073753431 l 15.372227316653955 14.915978811354046 a42.419425682675175,42.419425682675175 0 0,0 -0.5129909919940642,0.5196571665118535 l -15.113195699604356 -15.178376471846564" fill="#ff6809" stroke="none" /><path d="M 114.81725581225074 114.88116024355365 l 24.29347203925434 24.398245860717164 a55.430323623254466,55.430323623254466 0 0,0 -0.6819250832329966,0.6674072201480199 l -23.869897003645548 -24.812803183787757" fill="#bfff1e" stroke="none" /><line stroke="#e1ed5e" stroke-width="0.3" x1="143.8653032363475" x2="146.44561519142675" y1="172.8068346515853" y2="177.08958963109032" /><path d="M 144.38136562736335 173.6633856474863 a86.0,86.0 0 0,1 -40.68145358897372,12.25698825130547" fill="none" id="id6" stroke="none" /><text fill="#e1ed5e" style="font-size:6.75px; font-family:Arial;" text-anchor="middle"><textPath startOffset="21.466115282336833" xlink:href="#id6">June</textPath></text><path d="M 102.34483914955558 120.86867818915974 l 1.794059917666855 15.966834689260399 a37.06731032196578,37.06731032196578 0 0,0 -0.6346760249182656,0.06578676501647857 l -1.5189512961429867 -15.995350822732634" fill="#ff0500" stroke="none" /><path d="M 101.98527174616119 120.90594882070398 l 1.9853375571833152 20.906641845154173 a42.00069614221191,42.00069614221191 0 0,0 -0.7203233035442156,0.06215252559218534 l -1.6251699358975578 -20.937718623025024" fill="#ff6108" stroke="none" /><line stroke="#e1ed5e" stroke-width="0.3" x1="102.19456741930631" x2="102.32365962044197" y1="184.97166512339345" y2="189.96999836594603" /><path d="M 102.22038585953345 185.97133177190398 a86.0,86.0 0 0,1 -42.740103519485714,-10.115201625700543" fill="none" id="id7" stroke="none" /><text fill="#e1ed5e" style="font-size:6.75px; font-family:Arial;" text-anchor="middle"><textPath startOffset="22.20632615414155" xlink:href="#id7">July</textPath></text><path d="M 100.54218724476979 120.99299961872073 l 0.548675608267475 21.244223183544282 a42.25130733849915,42.25130733849915 0 0,0 -0.7272059822317776,0.012519510471381865 l -0.1829099361430295 -21.250520171294824" fill="#ff6509" stroke="none" /><path d="M 95.51606077576429 120.51570834832081 l -7.69718436341992 35.21751335291454 a57.0488542659429,57.0488542659429 0 0,0 -0.9575510299508526,-0.2179354968983076 l 8.302255542763636 -35.07980112243854" fill="#a7ff21" stroke="none" /><path d="M 94.46302465271185 120.25689768951611 l -7.152066063722087 26.16567014199113 a48.1255293581403,48.1255293581403 0 0,0 -0.7972081753411131,-0.225298993448628 l 7.601405407167814 -26.03868235520398" fill="#ffcb12" stroke="none" /><path d="M 92.7421414339146 119.70592522655815 l -5.626682446633445 15.277093450823424 a37.28032983880993,37.28032983880993 0 0,0 -0.6002661761133636,-0.22696930507113075 l 5.888818843507091 -15.177975895645659" fill="#ff0901" stroke="none" /><path d="M 90.42595943632237 118.69057910512821 l -15.639173242814758 30.531017984464434 a55.303451705134044,55.303451705134044 0 0,0 -0.8435332715638583,-0.4412967398377193 l 16.16239741690511 -30.257291825682" fill="#c1ff1e" stroke="none" /><line stroke="#e1ed5e" stroke-width="0.3" x1="58.666819895761336" x2="56.23545636021788" y1="174.27360380694188" y2="178.64263932499728" /><path d="M 58.180547188652646 175.14741091055294 a86.0,86.0 0 0,1 -31.652253787137756,-30.449443065178592" fill="none" id="id8" stroke="none" /><text fill="#e1ed5e" style="font-size:6.75px; font-family:Arial;" text-anchor="middle"><textPath startOffset="22.20632615414155" xlink:href="#id8">August</textPath></text><path d="M 86.24171649860922 115.8653595955263 l -27.425806685646457 31.626058964491126 a62.86146769983011,62.86146769983011 0 0,0 -0.8113848346454516,-0.7159527784775291 l 27.966133873198494 -31.149283044241308" fill="#56ff2b" stroke="none" /><path d="M 82.05923443525364 110.91462005526583 l -22.963406774232936 13.970243310451137 a47.87909501512452,47.87909501512452 0 0,0 -0.4222916214791674,-0.707785047767771 l 23.200479271410334 -13.572896168797254" fill="#ffc712" stroke="none" /><line stroke="#e1ed5e" stroke-width="0.3" x1="26.63291911575756" x2="22.317208475507996" y1="142.92168965132927" y2="145.44649492493687" /><path d="M 25.769776987707644 143.4266507060508 a86.0,86.0 0 0,1 -11.730757126820373,-40.83630448921669" fill="none" id="id9" stroke="none" /><text fill="#e1ed5e" style="font-size:6.75px; font-family:Arial;" text-anchor="middle"><textPath startOffset="21.46611528233685" xlink:href="#id9">September</textPath></text><path d="M 80.87730276802145 108.67885076344099 l -23.921873797478117 10.856960718020066 a47.2703186508101,47.2703186508101 0 0,0 -0.32989936313664175,-0.7438359729847877 l 24.10521424534604 -10.443576408542581" fill="#ffbd11" stroke="none" /><path d="M 80.45479744820244 107.68017299344265 l -19.478305202492532 7.653886071416451 a41.9281233166204,41.9281233166204 0 0,0 -0.2581688662260852,-0.6739974437430583 l 19.60716834831213 -7.317465060840235" fill="#ff6008" stroke="none" /><path d="M 80.32549172779594 107.34259656027581 l -29.463091785347878 10.99573079057953 a52.4480503874363,52.4480503874363 0 0,0 -0.30838389430590113,-0.8485400315174121 l 29.647999940659002 -10.486942962056" fill="#edff1a" stroke="none" /><path d="M 79.97269907076064 106.31721596034903 l -30.254809407759705 9.543281221134404 a52.724244810011186,52.724244810011186 0 0,0 -0.2655625495586566,-0.8678737773039784 l 30.41459872982449 -9.021080471278378" fill="#e9ff1a" stroke="none" /><path d="M 79.67330655649465 105.27499134158121 l -35.43732808135288 9.196360407434408 a57.611163137612394,57.611163137612394 0 0,0 -0.24083849018018877,-0.9620300501093272 l 35.590377885828126 -8.58500251792769" fill="#9fff22" stroke="none" /><path d="M 79.4281124754447 104.21870165774334 l -25.622242011273908 5.254383911978878 a47.15545518584511,47.15545518584511 0 0,0 -0.15621943704010482,-0.7965595438590846 l 25.70889138128968 -4.812560641051839" fill="#ffbb11" stroke="none" /><path d="M 79.29508885075956 103.50808413554451 l -15.571795357341145 2.638367673315909 a36.79372643268553,36.79372643268553 0 0,0 -0.10042627855391136,-0.6253545324195849 l 15.614903390256346 -2.3699339112031104" fill="#ff0000" stroke="none" /><path d="M 79.18660465613746 102.79330883721812 l -36.361388903721874 4.879962508771635 a57.687390709816434,57.687390709816434 0 0,0 -0.12361169130614925,-0.9853068023379352 l 36.440002104274875 -4.253337952146291" fill="#9eff22" stroke="none" /><path d="M 79.04373962182676 101.35467743843564 l -36.58805193213037 2.365164756226854 a57.66441801682343,57.66441801682343 0 0,0 -0.05550515771746514,-0.991081877301331 l 36.62334344073537 -1.7350111625900857" fill="#9eff22" stroke="none" /><line stroke="#e1ed5e" stroke-width="0.3" x1="15.007084014347285" x2="10.007500721073583" y1="101.09737516637583" y2="101.16192664675087" /><path d="M 14.007167355692545 101.11028546245083 a86.0,86.0 0 0,1 10.666146001902534,-42.60595125391555" fill="none" id="id10" stroke="none" /><text fill="#e1ed5e" style="font-size:6.75px; font-family:Arial;" text-anchor="middle"><textPath startOffset="22.20632615414155" xlink:href="#id10">October</textPath></text><path d="M 79.00019446554 99.90962569577889 l -43.41224457095629 -0.18682798711346102 a64.41264658351633,64.41264658351633 0 0,0 0.014314922054017831,-1.108706488681246 l 43.402596641784555 0.9340707338551791" fill="#41ff2d" stroke="none" /><path d="M 79.00486145842228 99.54816195383935 l -31.418324836967525 -0.6761562673122136 a52.42559980110222,52.42559980110222 0 0,0 0.02718218804668926,-0.9020444879661195 l 31.402030954465193 1.2168709027033273" fill="#edff19" stroke="none" /><path d="M 79.05617556472873 98.46500227214037 l -62.831473305813795 -4.604993183578899 a84.0,84.0 0 0,0 0.11810206472201168,-1.4411443311688865 l 62.742896757272284 5.685851431955563" fill="#4dd2ff" stroke="none" /><path d="M 79.62865764111835 94.90015583598534 l -53.902303448879245 -13.494120457450544 a76.56572328347076,76.56572328347076 0 0,0 0.33106897748296,-1.2757438217772858 l 53.662038139525976 14.419960704776694" fill="#41ffce" stroke="none" /><line stroke="#e1ed5e" stroke-width="0.3" x1="26.266209847984243" x2="21.928928074336255" y1="57.711370442889674" y2="55.22380399835377" /><path d="M 25.398753493254645 57.213857153982495 a86.0,86.0 0 0,1 29.58750427330803,-30.492523968695096" fill="none" id="id11" stroke="none" /><text fill="#e1ed5e" style="font-size:6.75px; font-family:Arial;" text-anchor="middle"><textPath startOffset="21.46611528233685" xlink:href="#id11">November</textPath></text><line stroke="#e1ed5e" stroke-width="0.3" x1="56.762969772571076" x2="54.21961505331055" y1="26.818313649435495" y2="22.513508569990535" /><path d="M 56.25429882871897 25.957352633546506 a86.0,86.0 0 0,1 42.265352541879196,-11.944610805530505" fill="none" id="id12" stroke="none" /><text fill="#e1ed5e" style="font-size:6.75px; font-family:Arial;" text-anchor="middle"><textPath startOffset="22.20632615414155" xlink:href="#id12">December</textPath></text></svg>