<?xml version="1.0" encoding="utf-8" ?>
<svg baseProfile="full" height="200mm" version="1.1" viewBox="0,0,200,200" width="200mm" xmlns="http://www.w3.org/2000/svg" xmlns:ev="http://www.w3.org/2001/xml-events" xmlns:xlink="http://www.w3.org/1999/xlink"><defs /><rect fill="#1a1a1a" height="200" width="200" x="0" y="0" /><text alignment-baseline="middle" fill="#e1ed5e" style="dominant-baseline: central; font-size:9.0px; font-family:Arial;" text-anchor="middle" x="100.0" y="100.0">2023</text><line stroke="#e1ed5e" stroke-width="0.3" x1="100.0" x2="100.0" y1="15.0" y2="10.0" /><path d="M 100.0 14.0 a86.0,86.0 0 0,1 42.46469731375804,11.215312516191453" fill="none" id="id13" stroke="none" /><text fill="#e1ed5e" style="font-size:6.75px; font-family:Arial;" text-anchor="middle"><textPath startOffset="22.20632615414155" xlink:href="#id13">January</textPath></text><line stroke="#e1ed5e" stroke-width="0.3" x1="143.23703022742887" x2="145.7803849466894" y1="26.81831364943548" y2="22.513508569990506" /><path d="M 143.74570117128098 25.957352633546492 a86.0,86.0 0 0,1 28.547481713284135,27.462654790039103" fill="none" id="id14" stroke="none" /><text fill="#e1ed5e" style="font-size:6.75px; font-family:Arial;" text-anchor="middle"><textPath startOffset="19.985693538727396" xlink:href="#id14">February</textPath></text><path d="M 110.68208982089419 81.91981866633111 l 17.857923280177655 -30.22577946469011 a56.10702448412274,56.10702448412274 0 0,0 0.8272791967590566,0.49842645955722015 l -18.375564543154347 29.913906395674275" fill="#c3ff1e" stroke="none" /><path d="M 111.90073688211348 82.69761687909136 l 16.781145989890057 -24.39796963844923 a50.61195338394098,50.61195338394098 0 0,0 0.7135534934204184,0.4998898223406895 l -17.198630622894125 24.1054949733446" fill="#ffe215" stroke="none" /><path d="M 114.68862486808459 84.99185889309783 l 20.663328647421814 -21.112810413766148 a50.541900994333375,50.541900994333375 0 0,0 0.6165250298207531,0.6138774754116935 l -21.02368947740989 20.753997087704334" fill="#ffe115" stroke="none" /><line stroke="#e1ed5e" stroke-width="0.3" x1="172.23445277983987" x2="176.4835382374775" y1="55.19839476539836" y2="52.563006222186495" /><path d="M 173.08426987136738 54.67131705675599 a86.0,86.0 0 0,1 12.851231095245387,41.99856678651699" fill="none" id="id15" stroke="none" /><text fill="#e1ed5e" style="font-size:6.75px; font-family:Arial;" text-anchor="middle"><textPath startOffset="22.20632615414155" xlink:href="#id15">March</textPath></text><path d="M 119.61058180528143 92.48833698450437 l 20.285095241265502 -7.77002952806753 a42.72230300438362,42.72230300438362 0 0,0 0.25713824135225327,0.6890026457336635 l -20.415838071119378 7.419703745304534" fill="#ff5507" stroke="none" /><path d="M 119.97218684219823 93.5106431181261 l 24.114605879424822 -7.835310417118971 a46.35559713460922,46.35559713460922 0 0,0 0.24004366595423846,0.761004018921928 l -24.245905029147266 7.4190562317706235" fill="#ff980e" stroke="none" /><line stroke="#e1ed5e" stroke-width="0.3" x1="184.98032266829074" x2="189.97916517819016" y1="98.17113171792111" y2="98.06355123074" /><path d="M 185.9800911702706 98.14961562048488 a86.0,86.0 0 0,1 -9.607161424134198,41.387399972396054" fill="none" id="id16" stroke="none" /><text fill="#e1ed5e" style="font-size:6.75px; font-family:Arial;" text-anchor="middle"><textPath startOffset="21.466115282336823" xlink:href="#id16">April</textPath></text><path d="M 120.89721153311464 102.0752229133903 l 25.208029445227492 2.5033139097652866 a46.33202181118358,46.33202181118358 0 0,0 -0.08564297397681964,0.7929475739739736 l -25.16120416974962 -2.9368578056240513" fill="#ff970e" stroke="none" /><path d="M 120.8583938346157 102.4346265915055 l 25.206698795455395 2.9421680143770406 a46.377825296696244,46.377825296696244 0 0,0 -0.09937772108403234,0.7921382156517083 l -25.152319565124515 -3.3756239843161437" fill="#ff980e" stroke="none" /><path d="M 120.70491114924044 103.5080841355445 l 62.114733447721314 10.524252406633499 a84.0,84.0 0 0,0 -0.25381423064324515,1.4235249970671267 l -61.924372774738885 -11.591896154433844" fill="#4dd2ff" stroke="none" /><path d="M 120.49622156327973 104.57218783832717 l 30.58589368149341 6.822938105110652 a52.33766705869774,52.33766705869774 0 0,0 -0.20371672789967146,0.8776063320296676 l -30.463916387663186 -7.348413094488885" fill="#ffff18" stroke="none" /><path d="M 119.26925614724726 108.34839909993367 l 20.01917694673385 8.673302047905 a42.817277878755476,42.817277878755476 0 0,0 -0.2988216095557175,0.6737638429471234 l -19.866914252446858 -9.016614227344812" fill="#ff5708" stroke="none" /><line stroke="#e1ed5e" stroke-width="0.3" x1="174.80103733775053" x2="179.2010983576182" y1="140.37084112569926" y2="142.7455964860345" /><path d="M 175.68104954172406 140.8457921977663 a86.0,86.0 0 0,1 -30.038265399797805,32.042727171017184" fill="none" id="id17" stroke="none" /><text fill="#e1ed5e" style="font-size:6.75px; font-family:Arial;" text-anchor="middle"><textPath startOffset="22.206326154141568" xlink:href="#id17">May</textPath></text><path d="M 112.04921762599082 117.19931262002967 l 17.214290675053697 24.572049077581802 a51.00195659146799,51.00195659146799 0 0,0 -0.7233610305491095,0.4975343127697079 l -16.788772759881702 -24.864724179716603" fill="#ffe815" stroke="none" /><line stroke="#e1ed5e" stroke-width="0.3" x1="143.8653032363475" x2="146.44561519142675" y1="172.8068346515853" y2="177.08958963109032" /><path d="M 144.38136562736335 173.6633856474863 a86.0,86.0 0 0,1 -40.68145358897372,12.25698825130547" fill="none" id="id18" stroke="none" /><text fill="#e1ed5e" style="font-size:6.75px; font-family:Arial;" text-anchor="middle"><textPath startOffset="21.466115282336833" xlink:href="#id18">June</textPath></text><line stroke="#e1ed5e" stroke-width="0.3" x1="102.19456741930631" x2="102.32365962044197" y1="184.97166512339345" y2="189.96999836594603" /><path d="M 102.22038585953345 185.97133177190398 a86.0,86.0 0 0,1 -42.740103519485714,-10.115201625700543" fill="none" id="id19" stroke="none" /><text fill="#e1ed5e" style="font-size:6.75px; font-family:Arial;" text-anchor="middle"><textPath startOffset="22.20632615414155" xlink:href="#id19">July</textPath></text><path d="M 91.7346041902142 119.30500536409082 l -6.81238995172423 15.911303897220494 a38.30832887843472,38.30832887843472 0 0,0 -0.6039569371457837,-0.2647569725864124 l 7.085267563527757 -15.791682371339629" fill="#ff0000" stroke="none" /><line stroke="#e1ed5e" stroke-width="0.3" x1="58.666819895761336" x2="56.23545636021788" y1="174.27360380694188" y2="178.64263932499728" /><path d="M 58.180547188652646 175.14741091055294 a86.0,86.0 0 0,1 -31.652253787137756,-30.449443065178592" fill="none" id="id20" stroke="none" /><text fill="#e1ed5e" style="font-size:6.75px; font-family:Arial;" text-anchor="middle"><textPath startOffset="22.20632615414155" xlink:href="#id20">August</textPath></text><path d="M 83.72743513129214 113.27417163493432 l -18.546339596272734 15.12897917365941 a44.934341922377854,44.934341922377854 0 0,0 -0.4837547543929514,-0.6035584367990644 l 18.804012262720548 -14.807492903282085" fill="#ff7e0b" stroke="none" /><path d="M 83.06392112726016 112.41649034213515 l -20.30917068543521 14.88943359128829 a46.1824869025981,46.1824869025981 0 0,0 -0.4645083081989314,-0.6451614130435828 l 20.562458786009746 -14.53763857279357" fill="#ff950d" stroke="none" /><line stroke="#e1ed5e" stroke-width="0.3" x1="26.63291911575756" x2="22.317208475507996" y1="142.92168965132927" y2="145.44649492493687" /><path d="M 25.769776987707644 143.4266507060508 a86.0,86.0 0 0,1 -11.730757126820373,-40.83630448921669" fill="none" id="id21" stroke="none" /><text fill="#e1ed5e" style="font-size:6.75px; font-family:Arial;" text-anchor="middle"><textPath startOffset="21.46611528233685" xlink:href="#id21">September</textPath></text><path d="M 81.69416730710424 110.29060199501025 l -20.780339725252016 11.681643169210124 a44.83869346733668,44.83869346733668 0 0,0 -0.37242504333693777,-0.6760596318229407 l 20.97834117804047 -11.32221301898936" fill="#ff7c0b" stroke="none" /><path d="M 80.0844068197444 106.66101706037122 l -16.666879343506327 5.574444438858514 a38.57439324280979,38.57439324280979 0 0,0 -0.2051932684556326,-0.6315199442650854 l 16.760364862978207 -5.286725594615625" fill="#ff0500" stroke="none" /><path d="M 79.29508885075956 103.50808413554451 l -19.31713088628108 3.272949104584084 a40.592440928044475,40.592440928044475 0 0,0 -0.11079464286611657,-0.6899183468890645 l 19.370607283508487 -2.939951528001806" fill="#ff2d04" stroke="none" /><path d="M 79.23777060512086 103.15116336523772 l -26.9751372993363 4.094120280305332 a48.284058590826476,48.284058590826476 0 0,0 -0.1176428418366558,-0.8227937618043282 l 27.041614192189556 -3.629181046520603" fill="#ffba11" stroke="none" /><path d="M 79.0235259727143 100.99374915477108 l -27.180827469933327 1.2876770561672848 a48.21131187854165,48.21131187854165 0 0,0 -0.03213597803548323,-0.8292868000873149 l 27.198965580820012 -0.8196130090659731" fill="#ffb911" stroke="none" /><line stroke="#e1ed5e" stroke-width="0.3" x1="15.007084014347285" x2="10.007500721073583" y1="101.09737516637583" y2="101.16192664675087" /><path d="M 14.007167355692545 101.11028546245083 a86.0,86.0 0 0,1 10.666146001902534,-42.60595125391555" fill="none" id="id22" stroke="none" /><text fill="#e1ed5e" style="font-size:6.75px; font-family:Arial;" text-anchor="middle"><textPath startOffset="22.20632615414155" xlink:href="#id22">October</textPath></text><line stroke="#e1ed5e" stroke-width="0.3" x1="26.266209847984243" x2="21.928928074336255" y1="57.711370442889674" y2="55.22380399835377" /><path d="M 25.398753493254645 57.213857153982495 a86.0,86.0 0 0,1 29.58750427330803,-30.492523968695096" fill="none" id="id23" stroke="none" /><text fill="#e1ed5e" style="font-size:6.75px; font-family:Arial;" text-anchor="middle"><textPath startOffset="21.46611528233685" xlink:href="#id23">November</textPath></text><line stroke="#e1ed5e" stroke-width="0.3" x1="56.762969772571076" x2="54.21961505331055" y1="26.818313649435495" y2="22.513508569990535" /><path d="M 56.25429882871897 25.957352633546506 a86.0,86.0 0 0,1 42.265352541879196,-11.944610805530505" fill="none" id="id24" stroke="none" /><text fill="#e1ed5e" style="font-size:6.75px; font-family:Arial;" text-anchor="middle"><textPath startOffset="22.20632615414155" xlink:href="#id24">December</textPath></text></svg>