<?xml version="1.0" encoding="utf-8" ?>
<svg baseProfile="full" height="200mm" version="1.1" viewBox="0,0,200,200" width="200mm" xmlns="http://www.w3.org/2000/svg" xmlns:ev="http://www.w3.org/2001/xml-events" xmlns:xlink="http://www.w3.org/1999/xlink"><defs /><rect fill="#1a1a1a" height="200" width="200" x="0" y="0" /><text alignment-baseline="middle" fill="#e1ed5e" style="dominant-baseline: central; font-size:9.0px; font-family:Arial;" text-anchor="middle" x="100.0" y="100.0">2022</text><line stroke="#e1ed5e" stroke-width="0.3" x1="100.0" x2="100.0" y1="15.0" y2="10.0" /><path d="M 100.0 14.0 a86.0,86.0 0 0,1 42.46469731375804,11.215312516191453" fill="none" id="id1" stroke="none" /><text fill="#e1ed5e" style="font-size:6.75px; font-family:Arial;" text-anchor="middle"><textPath startOffset="22.20632615414155" xlink:href="#id1">January</textPath></text><path d="M 108.43124777332544 80.76684994638697 l 7.209312204542918 -16.445701412310484 a38.95648287960208,38.95648287960208 0 0,0 0.6118354597778811,0.2745127362267583 l -7.491329782787579 16.319168345567196" fill="#ff7b0b" stroke="none" /><path d="M 109.73455568895987 81.39251694778311 l 8.146859469760813 -15.572621325109974 a38.57492117067105,38.57492117067105 0 0,0 0.5857049854784944,0.3128633189944352 l -8.413709501767618 15.430079279613786" fill="#ff750a" stroke="none" /><line stroke="#e1ed5e" stroke-width="0.3" x1="143.23703022742887" x2="145.7803849466894" y1="26.81831364943548" y2="22.513508569990506" /><path d="M 143.74570117128098 25.957352633546492 a86.0,86.0 0 0,1 28.547481713284135,27.462654790039103" fill="none" id="id2" stroke="none" /><text fill="#e1ed5e" style="font-size:6.75px; font-family:Arial;" text-anchor="middle"><textPath startOffset="19.985693538727396" xlink:href="#id2">February</textPath></text><path d="M 111.60114157652 82.49532879139004 l 11.866929155273276 -17.905711412000368 a42.481119820580005,42.481119820580005 0 0,0 0.6060544797428085,0.4092106900912472 l -12.173388329422627 17.698788809610452" fill="#ffb210" stroke="none" /><path d="M 112.19680574252982 82.90503203632743 l 6.479129870255925 -9.081108603565044 a32.15552138384332,32.15552138384332 0 0,0 0.4478110873233753,0.32535379945275256 l -6.6344862739330885 8.968235569295617" fill="#ff0a01" stroke="none" /><path d="M 113.34407831869373 83.78471172551755 l 9.249353926322883 -11.239512889993554 a35.5560021317227,35.5560021317227 0 0,0 0.46924180984154773,0.39297652107027287 l -9.441453273123548 11.07863521152946" fill="#ff4306" stroke="none" /><path d="M 113.89432698308785 84.25364557470407 l 11.732999228540699 -13.296935112381155 a38.7333514677799,38.7333514677799 0 0,0 0.4961355218293107,0.4454353701502873 l -11.960145737965998 13.093000733461569" fill="#ff770b" stroke="none" /><path d="M 114.42810811169701 84.74124197986012 l 12.083308266191779 -12.778964191923446 a38.5871619221033,38.5871619221033 0 0,0 0.47869534581660744,0.4605045434057509 l -12.301486855620803 12.569076561755393" fill="#ff750a" stroke="none" /><path d="M 114.94478906791727 85.2469230424477 l 7.57477201380614 -7.477602657872055 a31.643857973975223,31.643857973975223 0 0,0 0.3793280898263284,0.3909309404464853 l -7.702364367335577 7.346107521875455" fill="#ff0100" stroke="none" /><path d="M 117.65298651832404 88.62581576622439 l 9.720039974277704 -6.262822741768818 a32.56296353865968,32.56296353865968 0 0,0 0.2995364733389615,0.4737947669825715 l -9.82640404386262 6.09458032707204" fill="#ff1101" stroke="none" /><line stroke="#e1ed5e" stroke-width="0.3" x1="172.23445277983987" x2="176.4835382374775" y1="55.19839476539836" y2="52.563006222186495" /><path d="M 173.08426987136738 54.67131705675599 a86.0,86.0 0 0,1 12.851231095245387,41.99856678651699" fill="none" id="id3" stroke="none" /><text fill="#e1ed5e" style="font-size:6.75px; font-family:Arial;" text-anchor="middle"><textPath startOffset="22.20632615414155" xlink:href="#id3">March</textPath></text><path d="M 118.3937258080291 89.86733742301442 l 12.448664831905118 -6.857671011961082 a35.212561620109256,35.212561620109256 0 0,0 0.28789103028302343,0.5334183560444934 l -12.564863961406607 6.6423716725841295" fill="#ff3e05" stroke="none" /><path d="M 118.73160827565052 90.50648371742162 l 11.536510286258693 -5.846911094606823 a33.93357796331661,33.93357796331661 0 0,0 0.25957569164150934,0.523288754825877 l -11.635445990853611 5.647462751281997" fill="#ff2803" stroke="none" /><path d="M 119.04729006885535 91.15688171328212 l 16.239512942193358 -7.539546746406635 a38.90437225207621,38.90437225207621 0 0,0 0.2767725273550305,0.6098315764380495 l -16.366887786511736 7.258893161126522" fill="#ff7a0b" stroke="none" /><path d="M 119.34039704204932 91.81776055985345 l 18.90964653724906 -8.000004103323993 a41.53228671670294,41.53228671670294 0 0,0 0.2728835648061649,0.6608091971083306 l -19.044551788941423 7.67332033576236" fill="#ffa30f" stroke="none" /><path d="M 120.08093135843002 93.85539295169968 l 13.672481625994157 -4.18367183609598 a35.29824688013501,35.29824688013501 0 0,0 0.17278341055110152,0.5825397651438466 l -13.74247093365696 3.9477026842056038" fill="#ff3f05" stroke="none" /><path d="M 120.6074358757038 95.95851677861258 l 14.210111511860745 -2.7868545895581094 a35.48080894435316,35.48080894435316 0 0,0 0.11238001533458285,0.6003385355852887 l -14.255977251105188 2.541837976510258" fill="#ff4206" stroke="none" /><path d="M 120.73433829027371 96.67025291283417 l 18.294943436464532 -2.938002349754622 a39.529350046631436,39.529350046631436 0 0,0 0.10210639410498532,0.6727535615823887 l -18.34280572400882 2.6226496757801514" fill="#ff840c" stroke="none" /><path d="M 120.78858239683441 97.02765380044208 l 18.310261533864107 -2.6179965157883927 a39.49647488564196,39.49647488564196 0 0,0 0.090435644553017,0.6738505954585309 l -18.35261317747496 2.3024275782651977" fill="#ff830c" stroke="none" /><path d="M 120.91429891909075 98.10471618934814 l 14.34125344786122 -1.2996249881164208 a35.4000199849003,35.4000199849003 0 0,0 0.04977161251687538,0.607339739577449 l -14.36149954419759 1.052571331331203" fill="#ff4106" stroke="none" /><path d="M 120.94382443527127 98.46500227214037 l 11.284384156357904 -0.8270458957406878 a32.31465115246258,32.31465115246258 0 0,0 0.035883741274948124,0.5551055950036231 l -11.296948488637268 0.6326812364840294" fill="#ff0d01" stroke="none" /><line stroke="#e1ed5e" stroke-width="0.3" x1="184.98032266829074" x2="189.97916517819016" y1="98.17113171792111" y2="98.06355123074" /><path d="M 185.9800911702706 98.14961562048488 a86.0,86.0 0 0,1 -9.607161424134198,41.387399972396054" fill="none" id="id4" stroke="none" /><text fill="#e1ed5e" style="font-size:6.75px; font-family:Arial;" text-anchor="middle"><textPath startOffset="21.466115282336823" xlink:href="#id4">April</textPath></text><path d="M 120.99824983174949 100.27111621757518 l 21.303776838061477 0.275060990448262 a42.305552471466,42.305552471466 0 0,0 -0.015669044533294783,0.7280789291339758 l -21.295885730843175 -0.6417297353723526" fill="#ffaf10" stroke="none" /><path d="M 120.92983693683757 101.71520430193887 l 12.083780983634838 0.9902682562394222 a33.1242894257672,33.1242894257672 0 0,0 -0.0514615864547933,0.5678743183038084 l -12.06494480090297 -1.198123963091801" fill="#ff1a02" stroke="none" /><path d="M 120.70491114924044 103.5080841355445 l 18.358287120601563 3.1104898417260705 a39.61993160723009,39.61993160723009 0 0,0 -0.11971550546460831,0.6714281312497854 l -18.302025172797766 -3.4260367237090743" fill="#ff850c" stroke="none" /><path d="M 120.49622156327973 104.57218783832717 l 27.87566235084063 6.218354148462546 a49.56082071323888,49.56082071323888 0 0,0 -0.19290825891035626,0.8310437305076125 l -27.764493525999722 -6.697266536318724" fill="#e5ff1a" stroke="none" /><path d="M 120.32669344350535 105.2749913415812 l 20.505997502004096 5.3215226359464225 a42.18524337167474,42.18524337167474 0 0,0 -0.18845137288986183,0.7012976641546551 l -20.411358052772457 -5.673711233276626" fill="#ffad10" stroke="none" /><path d="M 120.13307415673323 105.97154293290107 l 20.349564834008135 6.035754854232901 a42.22581271927877,42.22581271927877 0 0,0 -0.21268383308903377,0.6950630723391878 l -20.242654228412967 -6.385144899124146" fill="#ffae10" stroke="none" /><path d="M 119.79798401119884 107.00284435728193 l 21.52361435138532 7.613225731652862 a43.83040036416929,43.83040036416929 0 0,0 -0.2577138607334563,0.7091178610395138 l -21.389376229646636 -7.982591389698507" fill="#ffc612" stroke="none" /><path d="M 119.67450827220406 107.3425965602758 l 20.16687339239712 7.526348976748478 a42.525536261491325,42.525536261491325 0 0,0 -0.2618473858078375,0.6836008976029545 l -20.034331726995777 -7.8723734411845765" fill="#ffb210" stroke="none" /><path d="M 119.26925614724726 108.34839909993367 l 32.68165795902533 14.159317920969354 a56.61708931029889,56.61708931029889 0 0,0 -0.395130437856669,0.890914825977635 l -32.433086436437385 -14.719781083439676" fill="#86ff25" stroke="none" /><line stroke="#e1ed5e" stroke-width="0.3" x1="174.80103733775053" x2="179.2010983576182" y1="140.37084112569926" y2="142.7455964860345" /><path d="M 175.68104954172406 140.8457921977663 a86.0,86.0 0 0,1 -30.038265399797805,32.042727171017184" fill="none" id="id5" stroke="none" /><text fill="#e1ed5e" style="font-size:6.75px; font-family:Arial;" text-anchor="middle"><textPath startOffset="22.206326154141568" xlink:href="#id5">May</textPath></text><path d="M 116.93607887273984 112.41649034213515 l 14.264925206324403 10.458164926280446 a38.68788581960297,38.68788581960297 0 0,0 -0.3983723535178979,0.5336848686168185 l -14.082791586111412 -10.70216267440658" fill="#ff760a" stroke="none" /><path d="M 116.498646956653 112.99209946851258 l 14.083328425688084 11.09012176786337 a38.92570613314385,38.92570613314385 0 0,0 -0.41906690082477804,0.5228503932605845 l -13.890343612808453 -11.330899994702204" fill="#ff7a0b" stroke="none" /><path d="M 116.27256486870786 113.27417163493432 l 13.685193088666498 11.16355063764456 a38.66095616645202,38.66095616645202 0 0,0 -0.4250937822273405,0.512052845091266 l -13.491003306545613 -11.397464739849598" fill="#ff760a" stroke="none" /><path d="M 116.0416608686014 113.55231037782055 l 13.438372951850583 11.35300158182848 a38.5920582226762,38.5920582226762 0 0,0 -0.43307179005972696,0.5037603309203432 l -13.240958652220078 -11.58263901191035" fill="#ff750a" stroke="none" /><path d="M 115.80600337817218 113.82643327865902 l 18.686754016072268 16.346393924902166 a45.82739152640227,45.82739152640227 0 0,0 -0.5244860950986436,0.5892656878822454 l -18.402609071325283 -16.665633782525276" fill="#ffe415" stroke="none" /><path d="M 115.56566222782051 114.09645910891815 l 13.133721928603364 11.894063445855846 a38.719012301816406,38.719012301816406 0 0,0 -0.45163624486608367,0.49016194456045586 l -12.92703927574156 -12.118376645217637" fill="#ff770a" stroke="none" /><path d="M 115.32070863581623 114.36230785411682 l 13.180660723714222 12.356132574187837 a39.06664964249234,39.06664964249234 0 0,0 -0.46413681644643606,0.4866455964495494 l -12.966017355888821 -12.581185287219894" fill="#ff7c0b" stroke="none" /><path d="M 115.07121518719521 114.62390073753431 l 10.297163305302938 9.991542963494451 a35.347909357374434,35.347909357374434 0 0,0 -0.4274729983805903,0.43302789048068513 l -10.123649681866812 -10.167311347955803" fill="#ff4006" stroke="none" /><path d="M 114.81725581225074 114.88116024355365 l 16.273103675093402 16.343286943106524 a44.06332437713728,44.06332437713728 0 0,0 -0.5420839024435353,0.5305431920784993 l -15.989369820274073 -16.620980238107595" fill="#ffca12" stroke="none" /><line stroke="#e1ed5e" stroke-width="0.3" x1="143.8653032363475" x2="146.44561519142675" y1="172.8068346515853" y2="177.08958963109032" /><path d="M 144.38136562736335 173.6633856474863 a86.0,86.0 0 0,1 -40.68145358897372,12.25698825130547" fill="none" id="id6" stroke="none" /><text fill="#e1ed5e" style="font-size:6.75px; font-family:Arial;" text-anchor="middle"><textPath startOffset="21.466115282336833" xlink:href="#id6">June</textPath></text><path d="M 102.34483914955558 120.86867818915974 l 1.2017600033600784 10.695464025955978 a31.762768130745663,31.762768130745663 0 0,0 -0.5438502886376445,0.05637230608696195 l -1.0174771181168314 -10.714565700498698" fill="#ff0300" stroke="none" /><path d="M 101.98527174616119 120.90594882070398 l 1.3298882862810584 14.004418540688862 a35.06742128169827,35.06742128169827 0 0,0 -0.6014157636549915,0.051892682713708824 l -1.0886282048845253 -14.025235475681233" fill="#ff3b05" stroke="none" /><line stroke="#e1ed5e" stroke-width="0.3" x1="102.19456741930631" x2="102.32365962044197" y1="184.97166512339345" y2="189.96999836594603" /><path d="M 102.22038585953345 185.97133177190398 a86.0,86.0 0 0,1 -42.740103519485714,-10.115201625700543" fill="none" id="id7" stroke="none" /><text fill="#e1ed5e" style="font-size:6.75px; font-family:Arial;" text-anchor="middle"><textPath startOffset="22.20632615414155" xlink:href="#id7">July</textPath></text><path d="M 100.54218724476979 120.99299961872073 l 0.3675330987231585 14.230549087591436 a35.23529444419772,35.23529444419772 0 0,0 -0.6064502738397133,0.010440591440691415 l -0.12252313499077729 -14.234767156311287" fill="#ff3e05" stroke="none" /><path d="M 95.51606077576429 120.51570834832081 l -5.155997419794292 23.590627352275124 a45.14750521827952,45.14750521827952 0 0,0 -0.7577898045059104,-0.17247049235375314 l 5.561307373693064 -23.498380126343683" fill="#ffda14" stroke="none" /><path d="M 94.46302465271185 120.25689768951611 l -4.790847201997523 17.527204932292047 a39.17017142603366,39.17017142603366 0 0,0 -0.648861037100779,-0.18337461038239716 l 5.091839407202916 -17.442141528571128" fill="#ff7e0b" stroke="none" /><path d="M 92.7421414339146 119.70592522655815 l -3.7690613615436375 10.233437409754899 a31.905460318870187,31.905460318870187 0 0,0 -0.5137231549600537,-0.1942461396629014 l 3.944654737263974 -10.167043019985364" fill="#ff0600" stroke="none" /><path d="M 90.42595943632237 118.69057910512821 l -10.475978368256445 20.45135500452659 a43.97833858862193,43.97833858862193 0 0,0 -0.6707934257955086,-0.3509274167210172 l 10.82646269657845 -20.267998168860853" fill="#ffc812" stroke="none" /><line stroke="#e1ed5e" stroke-width="0.3" x1="58.666819895761336" x2="56.23545636021788" y1="174.27360380694188" y2="178.64263932499728" /><path d="M 58.180547188652646 175.14741091055294 a86.0,86.0 0 0,1 -31.652253787137756,-30.449443065178592" fill="none" id="id8" stroke="none" /><text fill="#e1ed5e" style="font-size:6.75px; font-family:Arial;" text-anchor="middle"><textPath startOffset="22.20632615414155" xlink:href="#id8">August</textPath></text><path d="M 86.24171649860922 115.8653595955263 l -18.371313694783552 21.184873678500256 a49.041113381001026,49.041113381001026 0 0,0 -0.6329985144712093,-0.5585475915455616 l 18.73325456216135 -20.865502945182406" fill="#ecff1a" stroke="none" /><path d="M 82.05923443525364 110.91462005526583 l -15.382152809059917 9.358037311007163 a39.00509614957588,39.00509614957588 0 0,0 -0.3440233215300339,-0.5766028750688212 l 15.540957006288183 -9.09187234205223" fill="#ff7b0b" stroke="none" /><line stroke="#e1ed5e" stroke-width="0.3" x1="26.63291911575756" x2="22.317208475507996" y1="142.92168965132927" y2="145.44649492493687" /><path d="M 25.769776987707644 143.4266507060508 a86.0,86.0 0 0,1 -11.730757126820373,-40.83630448921669" fill="none" id="id9" stroke="none" /><text fill="#e1ed5e" style="font-size:6.75px; font-family:Arial;" text-anchor="middle"><textPath startOffset="21.46611528233685" xlink:href="#id9">September</textPath></text><path d="M 80.87730276802145 108.67885076344099 l -16.024186735425996 7.272589404893476 a38.59730425900431,38.59730425900431 0 0,0 -0.26937043069030586,-0.6073592094897872 l 16.14699825084758 -6.995681858910993" fill="#ff750a" stroke="none" /><path d="M 80.45479744820244 107.68017299344265 l -13.04764010113892 5.1269938424716095 a35.018808011724474,35.018808011724474 0 0,0 -0.2156253427491728,-0.5629297286834468 l 13.133959723481603 -4.901640546955004" fill="#ff3a05" stroke="none" /><path d="M 80.32549172779594 107.34259656027581 l -19.735999302077325 7.365545231632094 a42.06563374339388,42.06563374339388 0 0,0 -0.2473373910832918,-0.6805662730786612 l 19.859860954165843 -7.024731161547315" fill="#ffab0f" stroke="none" /><path d="M 79.97269907076064 106.31721596034903 l -20.266335308807374 6.39261462754909 a42.250643957898475,42.250643957898475 0 0,0 -0.212808903577204,-0.6954718099310617 l 20.373370984890705 -6.042815845065981" fill="#ffae10" stroke="none" /><path d="M 79.67330655649465 105.27499134158121 l -23.737871346851524 6.160227986427328 a45.524170626637655,45.524170626637655 0 0,0 -0.19030986224381055,-0.7601932987278484 l 23.840392523390392 -5.750706848302088" fill="#ffdf14" stroke="none" /><path d="M 79.4281124754447 104.21870165774334 l -17.163186882635152 3.5196753271912957 a38.52036239285873,38.52036239285873 0 0,0 -0.12761258064156186,-0.6506937993921154 l 17.22122939625238 -3.2237178007312255" fill="#ff740a" stroke="none" /><path d="M 79.29508885075956 103.50808413554451 l -10.430844954887252 1.767323773708 a31.5795065950171,31.5795065950171 0 0,0 -0.08619437696011566,-0.5367324676096068 l 10.459721086208658 -1.5875120764051796" fill="#ff0000" stroke="none" /><path d="M 79.18660465613746 102.79330883721812 l -24.356858107583164 3.2688672787279023 a45.5752320468979,45.5752320468979 0 0,0 -0.09765793608738506,-0.7784298371168478 l 24.409517552917396 -2.849119687323646" fill="#ffe015" stroke="none" /><path d="M 79.04373962182676 101.35467743843564 l -24.50868947012541 1.5843174341059718 a45.55984367366878,45.55984367366878 0 0,0 -0.04385384255421203,-0.7830398181506212 l 24.532329663567157 -1.1622058996199132" fill="#ffe015" stroke="none" /><line stroke="#e1ed5e" stroke-width="0.3" x1="15.007084014347285" x2="10.007500721073583" y1="101.09737516637583" y2="101.16192664675087" /><path d="M 14.007167355692545 101.11028546245083 a86.0,86.0 0 0,1 10.666146001902534,-42.60595125391555" fill="none" id="id10" stroke="none" /><text fill="#e1ed5e" style="font-size:6.75px; font-family:Arial;" text-anchor="middle"><textPath startOffset="22.20632615414155" xlink:href="#id10">October</textPath></text><path d="M 79.00019446554 99.90962569577889 l -29.07990901959876 -0.1251476610174856 a50.080178309721546,50.080178309721546 0 0,0 0.011129706462619356,-0.8620080308967017 l 29.073446306018425 0.6256919499746594" fill="#ddff1b" stroke="none" /><path d="M 79.00486145842228 99.54816195383935 l -21.045721934830834 -0.45292665538941834 a42.050595105919975,42.050595105919975 0 0,0 0.02180284418262919,-0.7235302538244436 l 21.034807396192562 0.8151270566388564" fill="#ffab0f" stroke="none" /><path d="M 79.05617556472873 98.46500227214037 l -42.08797645360185 -3.0846777018283293 a63.200864902073995,63.200864902073995 0 0,0 0.08885895996609357,-1.0843043830785069 l 42.02864300981626 3.8086960021146146" fill="#36ff2e" stroke="none" /><path d="M 79.62865764111835 94.90015583598534 l -36.10672739296429 -9.03910403805053 a58.220977483679,58.220977483679 0 0,0 0.2517465865530617,-0.9700822918846856 l 35.94578447454092 9.659282755484078" fill="#72ff27" stroke="none" /><path d="M 79.91906864156998 93.8553929516997 l -23.47427611211952 -7.182943852438632 a45.54865212950216,45.54865212950216 0 0,0 0.23586505432538493,-0.7477566781498577 l 23.34715557402593 7.585950697014905" fill="#ffe015" stroke="none" /><path d="M 80.38941819471856 92.48833698450439 l -32.04660565039132 -12.275173925303266 a55.31712150819381,55.31712150819381 0 0,0 0.3482514412076884,-0.886261932273037 l 31.83056065930194 12.824984862472066" fill="#97ff23" stroke="none" /><path d="M 81.43458229118936 90.18545643968196 l -22.066891602086457 -11.665585567014347 a45.96064084913621,45.96064084913621 0 0,0 0.37576522802501644,-0.6962358986826952 l 21.86281827484297 12.043702449029515" fill="#ffe615" stroke="none" /><path d="M 81.6062741919709 89.86733742301443 l -13.441788789408848 -7.404759191024452 a36.34640493849092,36.34640493849092 0 0,0 0.3065946619687966,-0.5453976928907748 l 13.312336486147622 7.635040393850011" fill="#ff5007" stroke="none" /><line stroke="#e1ed5e" stroke-width="0.3" x1="26.266209847984243" x2="21.928928074336255" y1="57.711370442889674" y2="55.22380399835377" /><path d="M 25.398753493254645 57.213857153982495 a86.0,86.0 0 0,1 29.58750427330803,-30.492523968695096" fill="none" id="id11" stroke="none" /><text fill="#e1ed5e" style="font-size:6.75px; font-family:Arial;" text-anchor="middle"><textPath startOffset="21.46611528233685" xlink:href="#id11">November</textPath></text><path d="M 82.54541684631803 88.32363383020206 l -43.64450030993745 -29.1962954617561 a73.50967602256074,73.50967602256074 0 0,0 0.7126081702290755,-1.0456645585814601 l 43.13546767403964 29.943238043607977" fill="#3effb2" stroke="none" /><path d="M 83.39014120810768 87.1503855733568 l -49.82957637567698 -38.54884327992962 a84.0,84.0 0 0,0 0.8945836776241158,-1.1360304241878092 l 49.15863861745889 39.40086609807048" fill="#4dd2ff" stroke="none" /><path d="M 84.07557802195018 86.31012108654704 l -18.73525890800314 -16.106294232612658 a45.7067326908558,45.7067326908558 0 0,0 0.5180273461760118,-0.5921948067605837 l 18.455239698249283 16.426404595576184" fill="#ffe215" stroke="none" /><path d="M 85.05521093208273 85.24692304244772 l -16.6095431283873 -16.396475513256004 a44.33926588799574,44.33926588799574 0 0,0 0.540863455588913,-0.5385408160247741 l 16.324843872631075 16.679952179930886" fill="#ffce13" stroke="none" /><path d="M 85.83668400450813 84.49514656593479 l -25.41999774951428 -27.827758663715308 a58.690322867167026,58.690322867167026 0 0,0 0.7517643802720397,-0.6749414832415191 l 24.93722238164627 28.261199155726107" fill="#6cff28" stroke="none" /><path d="M 87.80319425747018 82.90503203632743 l -11.821563162339856 -16.569030269626552 a41.353921481547275,41.353921481547275 0 0,0 0.583028971751833,-0.4084490536391762 l 11.534603051004364 16.77006416602967" fill="#ffa00e" stroke="none" /><path d="M 88.70189139769569 82.29822771554957 l -9.451070807364601 -14.807850514205828 a38.56687724830128,38.56687724830128 0 0,0 0.5626739305566777,-0.35234636369478756 l 9.194777724435681 14.968341219223545" fill="#ff740a" stroke="none" /><line stroke="#e1ed5e" stroke-width="0.3" x1="56.762969772571076" x2="54.21961505331055" y1="26.818313649435495" y2="22.513508569990535" /><path d="M 56.25429882871897 25.957352633546506 a86.0,86.0 0 0,1 42.265352541879196,-11.944610805530505" fill="none" id="id12" stroke="none" /><text fill="#e1ed5e" style="font-size:6.75px; font-family:Arial;" text-anchor="middle"><textPath startOffset="22.20632615414155" xlink:href="#id12">December</textPath></text><path d="M 89.94658935756843 81.56283822128135 l -17.728696529763376 -32.513030420291024 a58.032469911622336,58.032469911622336 0 0,0 0.8811400235008505,-0.47067448474268686 l 17.16641145973422 32.81338363153546" fill="#74ff27" stroke="none" /><path d="M 91.56875222667455 80.76684994638697 l -14.092581463816815 -32.1476418702672 a56.100879335613094,56.100879335613094 0 0,0 0.8877730193081091,-0.380098075884467 l 13.537124686718398 32.385459474114455" fill="#8dff24" stroke="none" /><path d="M 92.57280143429618 80.3572730644239 l -7.74133802628969 -20.4735321967241 a42.88821223964116,42.88821223964116 0 0,0 0.6927828384620712,-0.25515776604045975 l 7.38777286205505 20.603753230570884" fill="#ffb811" stroke="none" /></svg>