<?xml version="1.0" encoding="utf-8" ?>
<svg baseProfile="full" height="200mm" version="1.1" viewBox="0,0,200,200" width="200mm" xmlns="http://www.w3.org/2000/svg" xmlns:ev="http://www.w3.org/2001/xml-events" xmlns:xlink="http://www.w3.org/1999/xlink"><defs /><rect fill="#1a1a1a" height="200" width="200" x="0" y="0" /><text alignment-baseline="middle" fill="#e1ed5e" style="dominant-baseline: central; font-size:9.0px; font-family:Arial;" text-anchor="middle" x="100.0" y="100.0">2024</text><line stroke="#e1ed5e" stroke-width="0.3" x1="100.0" x2="100.0" y1="15.0" y2="10.0" /><path d="M 100.0 14.0 a86.0,86.0 0 0,1 42.35913384403234,11.155469271406648" fill="none" id="id25" stroke="none" /><text fill="#e1ed5e" style="font-size:6.75px; font-family:Arial;" text-anchor="middle"><textPath startOffset="22.145653131862478" xlink:href="#id25">January</textPath></text><path d="M 100.72087961077811 79.0123766808444 l 0.9682124456273797 -28.188448941997496 a49.20507204556421,49.20507204556421 0 0,0 0.8439237808853401,0.03624171833175353 l -1.451961987113556 28.16767465523991" fill="#beff1f" stroke="none" /><path d="M 102.15924093988457 79.11130261209362 l 3.0719802378170784 -29.71862212506033 a50.8769738024731,50.8769738024731 0 0,0 0.8679711023153769,0.09725797242890713 l -3.581687241733252 29.661508392124453" fill="#aaff21" stroke="none" /><path d="M 104.29559338865022 79.4440306129975 l 6.116639363042426 -29.270333600532723 a50.90260366897831,50.90260366897831 0 0,0 0.8538004811502341,0.1860818409935563 l -6.618202260811794 29.161020301405447" fill="#a9ff21" stroke="none" /><path d="M 107.06938296918511 80.22567764915836 l 21.208148907555344 -59.32296705252493 a84.0,84.0 0 0,0 1.3536433933835013,0.49707660396511244 l -22.22338145259297 58.9501595995511" fill="#4dd2ff" stroke="none" /><line stroke="#e1ed5e" stroke-width="0.3" x1="143.13028292997686" x2="145.6673583964461" y1="26.7553504044142" y2="22.446841604673864" /><path d="M 143.63769802327073 25.89364864446614 a86.0,86.0 0 0,1 29.32050498858742,28.57503671076993" fill="none" id="id26" stroke="none" /><text fill="#e1ed5e" style="font-size:6.75px; font-family:Arial;" text-anchor="middle"><textPath startOffset="20.669276256404974" xlink:href="#id26">February</textPath></text><line stroke="#e1ed5e" stroke-width="0.3" x1="172.87174338648825" x2="177.1583165268699" y1="56.24261187166439" y2="53.66864786411523" /><path d="M 173.72905801456457 55.72781907015455 a86.0,86.0 0 0,1 12.242430191666344,42.057860355516425" fill="none" id="id27" stroke="none" /><text fill="#e1ed5e" style="font-size:6.75px; font-family:Arial;" text-anchor="middle"><textPath startOffset="22.145653131862474" xlink:href="#id27">March</textPath></text><path d="M 120.7213421655516 96.59031103205396 l 20.6511581442902 -3.398140213955631 a41.92887215341968,41.92887215341968 0 0,0 0.1107691077808175,0.7112171323492281 l -20.706448744209283 3.043134899674962" fill="#ffe315" stroke="none" /><line stroke="#e1ed5e" stroke-width="0.3" x1="184.99686870605535" x2="189.99668451229388" y1="99.2704041080226" y2="99.22748670261217" /><path d="M 185.99683186730306 99.26182062694052 a86.0,86.0 0 0,1 -10.086455211305974,41.156179273409016" fill="none" id="id28" stroke="none" /><text fill="#e1ed5e" style="font-size:6.75px; font-family:Arial;" text-anchor="middle"><textPath startOffset="21.40746469413373" xlink:href="#id28">April</textPath></text><line stroke="#e1ed5e" stroke-width="0.3" x1="174.33088141563837" x2="178.70328620479359" y1="141.23008692659167" y2="143.65538615756765" /><path d="M 175.20536237346943 141.71514677278685 a86.0,86.0 0 0,1 -30.301960400862466,31.631185727798858" fill="none" id="id29" stroke="none" /><text fill="#e1ed5e" style="font-size:6.75px; font-family:Arial;" text-anchor="middle"><textPath startOffset="22.145653131862474" xlink:href="#id29">May</textPath></text><line stroke="#e1ed5e" stroke-width="0.3" x1="143.1302829299769" x2="145.66735839644613" y1="173.24464959558577" y2="177.55315839532614" /><path d="M 143.63769802327073 174.10635135553383 a86.0,86.0 0 0,1 -40.68552437913181,11.842963189579606" fill="none" id="id30" stroke="none" /><text fill="#e1ed5e" style="font-size:6.75px; font-family:Arial;" text-anchor="middle"><textPath startOffset="21.407464694133747" xlink:href="#id30">June</textPath></text><path d="M 107.06938296918513 119.77432235084164 l 5.019972879492076 14.041757582557638 a35.91211198047248,35.91211198047248 0 0,0 -0.5822793734773191,0.20254699203521248 l -4.778187733969735 -14.125863007161442" fill="#ff8f0d" stroke="none" /><line stroke="#e1ed5e" stroke-width="0.3" x1="101.45913802915013" x2="101.54496967792366" y1="184.9874750549273" y2="189.98673829345242" /><path d="M 101.47630435890484 185.9873277026323 a86.0,86.0 0 0,1 -42.54439059252881,-10.42667462771756" fill="none" id="id31" stroke="none" /><text fill="#e1ed5e" style="font-size:6.75px; font-family:Arial;" text-anchor="middle"><textPath startOffset="22.145653131862474" xlink:href="#id31">July</textPath></text><path d="M 96.41257539226777 120.69131181640829 l -2.4486649766516115 14.123248877931104 a35.33394987558776,35.33394987558776 0 0,0 -0.5967487974913773,-0.10874750965127723 l 2.690748507694046 -14.079133194348461" fill="#ff870c" stroke="none" /><path d="M 95.35216902796893 120.47920084513623 l -2.3214529891193747 10.228750206882452 a31.488873856400843,31.488873856400843 0 0,0 -0.5261158738643673,-0.12416191369273706 l 2.49670101672363 -10.187392149543488" fill="#ff4f07" stroke="none" /><line stroke="#e1ed5e" stroke-width="0.3" x1="58.13341422392154" x2="55.67067388415222" y1="173.97424548756322" y2="178.32567169271397" /><path d="M 57.64086615596768 174.84453072859336 a86.0,86.0 0 0,1 -31.369924170532247,-30.572349798747897" fill="none" id="id32" stroke="none" /><text fill="#e1ed5e" style="font-size:6.75px; font-family:Arial;" text-anchor="middle"><textPath startOffset="22.145653131862474" xlink:href="#id32">August</textPath></text><path d="M 84.83555147118756 114.52719865689866 l -3.8685505750484737 3.7059839407420783 a26.35723814299365,26.35723814299365 0 0,0 -0.3101922688507237,-0.32941344013835766 l 3.9315986776354506 -3.6390290406592305" fill="#ff0000" stroke="none" /><path d="M 83.4222238831116 112.89097897827486 l -16.09391716800054 12.514727333024963 a41.38706869636792,41.38706869636792 0 0,0 -0.43130848320486054,-0.5645966497034689 l 16.306377628559698 -12.236609770080623" fill="#ffdb14" stroke="none" /><path d="M 82.18462484594161 111.11811171558189 l -16.405948519071238 10.238525254606694 a40.33862834328316,40.33862834328316 0 0,0 -0.36157248210157605,-0.5906014762859773 l 16.57928896562822 -9.95538666219616" fill="#ffcd13" stroke="none" /><line stroke="#e1ed5e" stroke-width="0.3" x1="26.387840678322732" x2="22.057713659400548" y1="142.50000000000003" y2="145.00000000000006" /><path d="M 25.521815274538298 143.00000000000003 a86.0,86.0 0 0,1 -11.493303480769221,-40.785679425670985" fill="none" id="id33" stroke="none" /><text fill="#e1ed5e" style="font-size:6.75px; font-family:Arial;" text-anchor="middle"><textPath startOffset="21.40746469413373" xlink:href="#id33">September</textPath></text><path d="M 80.83023694016515 108.57439118712176 l -17.994334860446124 8.048637104378301 a40.712347559533384,40.712347559533384 0 0,0 -0.279880170054562,-0.640420601303929 l 18.129848912517655 -7.738554433298523" fill="#ffd213" stroke="none" /><line stroke="#e1ed5e" stroke-width="0.3" x1="15.003131293944662" x2="10.003315487706104" y1="100.72959589197737" y2="100.7725132973878" /><path d="M 14.003168132696942 100.73817937305945 a86.0,86.0 0 0,1 10.791469493833604,-42.45332614584628" fill="none" id="id34" stroke="none" /><text fill="#e1ed5e" style="font-size:6.75px; font-family:Arial;" text-anchor="middle"><textPath startOffset="22.145653131862435" xlink:href="#id34">October</textPath></text><path d="M 79.83685265289637 94.1308016681162 l -20.08455271615851 -5.846320580266097 a41.91814337209192,41.91814337209192 0 0,0 0.20704305186518257,-0.6891789825560042 l 19.9812333442897 6.190237166412825" fill="#ffe215" stroke="none" /><path d="M 80.9802524753101 91.09779779509293 l -18.96909273857298 -8.878493207294259 a41.94407126030067,41.94407126030067 0 0,0 0.3108270235100292,-0.649508932682898 l 18.813886457103045 9.202814642042243" fill="#ffe315" stroke="none" /><path d="M 81.46374523516351 90.13048839642627 l -21.125879881774136 -11.248341117128241 a44.93382499030247,44.93382499030247 0 0,0 0.3683603300785973,-0.6777415180559835 l 20.929674202080186 11.609337468658845" fill="#f4ff19" stroke="none" /><line stroke="#e1ed5e" stroke-width="0.3" x1="26.387840678322718" x2="22.05771365940052" y1="57.49999999999999" y2="54.99999999999999" /><path d="M 25.521815274538284 56.99999999999999 a86.0,86.0 0 0,1 29.574782752854787,-30.34633250058573" fill="none" id="id35" stroke="none" /><text fill="#e1ed5e" style="font-size:6.75px; font-family:Arial;" text-anchor="middle"><textPath startOffset="21.40746469413373" xlink:href="#id35">November</textPath></text><path d="M 81.81346652052679 89.5 l -20.864864748492007 -12.046335279146998 a45.09267055829399,45.09267055829399 0 0,0 0.3927921393128024,-0.6670469251169922 l 20.654998899049424 12.402733372557561" fill="#f2ff19" stroke="none" /><path d="M 82.18462484594161 88.88188828441811 l -17.72545299312013 -11.061993636542148 a41.89400361410446,41.89400361410446 0 0,0 0.3859880250614401,-0.6068372863034701 l 17.5329472764328 11.36464459752429" fill="#ffe215" stroke="none" /><line stroke="#e1ed5e" stroke-width="0.3" x1="56.869717070023135" x2="54.33264160355391" y1="26.7553504044142" y2="22.446841604673864" /><path d="M 56.362301976729285 25.89364864446614 a86.0,86.0 0 0,1 42.16139366436587,-11.88097634709845" fill="none" id="id36" stroke="none" /><text fill="#e1ed5e" style="font-size:6.75px; font-family:Arial;" text-anchor="middle"><textPath startOffset="22.145653131862474" xlink:href="#id36">December</textPath></text></svg>